<svg width="512" height="512" viewBox="0 0 512 512" fill="none" xmlns="http://www.w3.org/2000/svg">
<g clip-path="url(#clip0_422_5)">
<path d="M319.564 260.312L348.644 231.232C350.76 239.148 352 247.424 352 256C352 308.936 308.936 352 256 352C247.424 352 239.148 350.76 231.232 348.644L260.312 319.564C292.108 317.396 317.396 292.108 319.564 260.312ZM509.984 248.228C508.016 244.688 480.104 195.78 425.544 154.332L402.26 177.616C442.044 206.868 467.252 240.984 477.176 256.024C458.212 284.9 383.82 384 256 384C236.832 384 219.008 381.548 202.236 377.636L175.944 403.928C200.116 411.34 226.684 416 256 416C423.492 416 506.532 269.984 509.984 263.772C512.672 258.936 512.672 253.064 509.984 248.228V248.228ZM443.312 91.312L91.312 443.312C88.188 446.436 84.092 448 80 448C75.908 448 71.812 446.436 68.688 443.312C62.436 437.06 62.436 426.936 68.688 420.688L113.472 375.904C41.072 332.196 4.284 267.856 2.016 263.772C-0.672 258.936 -0.672 253.06 2.016 248.224C5.468 242.016 88.508 96 256 96C299.308 96 336.82 105.88 368.888 120.488L420.688 68.688C426.94 62.436 437.064 62.436 443.312 68.688C449.56 74.94 449.564 85.064 443.312 91.312V91.312ZM137.332 352.044L177.84 311.536C166.652 295.84 160 276.7 160 256C160 203.064 203.064 160 256 160C276.7 160 295.84 166.652 311.536 177.836L344.292 145.08C318.412 134.716 289.004 128 256 128C128.18 128 53.788 227.1 34.828 255.976C46.868 274.224 81.476 320.416 137.332 352.044ZM201.068 288.304L288.304 201.068C278.788 195.448 267.832 192 256 192C220.712 192 192 220.712 192 256C192 267.832 195.448 278.788 201.068 288.304V288.304Z" fill="white"/>
</g>
<defs>
<clipPath id="clip0_422_5">
<rect width="512" height="512" fill="white"/>
</clipPath>
</defs>
</svg>
