<svg width="25" height="25" viewBox="0 0 25 25" fill="none" xmlns="http://www.w3.org/2000/svg">
<path d="M12.4999 14.4208C11.3186 14.4208 10.3575 15.382 10.3575 16.5632C10.3575 17.7446 11.3186 18.7057 12.4999 18.7057C13.6812 18.7057 14.6423 17.7446 14.6423 16.5632C14.6423 15.3819 13.6812 14.4208 12.4999 14.4208ZM12.4999 17.5237C11.9704 17.5237 11.5396 17.0928 11.5396 16.5632C11.5396 16.0337 11.9704 15.6028 12.4999 15.6028C13.0295 15.6028 13.4603 16.0337 13.4603 16.5632C13.4603 17.0928 13.0295 17.5237 12.4999 17.5237Z" fill="white"/>
<path d="M25 16.5632C25 15.7022 24.6173 14.9821 24.061 14.6795V8.68723C24.6279 8.15806 24.9475 7.42713 24.9475 6.63939C24.9475 5.09147 23.6882 3.83211 22.1403 3.83211C20.5923 3.83211 19.333 5.09147 19.333 6.63939C19.333 7.32703 19.5765 7.9713 20.0155 8.47595L17.3683 11.9107L14.6303 8.46952C15.0659 7.96591 15.3073 7.32415 15.3073 6.63939C15.3073 5.09147 14.0479 3.83211 12.5 3.83211C10.952 3.83211 9.69268 5.09147 9.69268 6.63939C9.69268 7.33058 9.93883 7.9781 10.3821 8.48385L7.74028 12.0517L4.98441 8.47587C5.42331 7.97123 5.66688 7.32696 5.66688 6.63932C5.66688 5.0914 4.40751 3.83203 2.85959 3.83203C1.31167 3.83203 0.0523042 5.0914 0.0523042 6.63932C0.0523042 7.42706 0.371966 8.15799 0.93889 8.68716V14.6795C0.38253 14.982 0 15.7021 0 16.5632C0 17.4243 0.382604 18.1444 0.93889 18.4469V20.577C0.93889 20.9034 1.20351 21.168 1.5299 21.168H23.47C23.7963 21.168 24.061 20.9034 24.061 20.577V18.4469C24.6174 18.1444 25 17.4243 25 16.5632ZM23.468 17.6293C23.2084 17.6293 22.9068 17.1635 22.9068 16.5631C22.9068 15.9628 23.2084 15.497 23.468 15.497C23.7275 15.497 24.0291 15.9628 24.0291 16.5631C24.0291 17.1636 23.7275 17.6293 23.468 17.6293ZM1.53197 15.4971C1.79149 15.4971 2.09313 15.9629 2.09313 16.5632C2.09313 17.1636 1.79149 17.6293 1.53197 17.6293C1.27244 17.6293 0.970804 17.1636 0.970804 16.5632C0.970804 15.9629 1.27244 15.4971 1.53197 15.4971ZM2.12091 19.986V18.449C2.67956 18.1479 3.06401 17.4264 3.06401 16.5632C3.06401 15.7001 2.67948 14.9786 2.12091 14.6775V8.41249C2.12091 8.22662 2.03344 8.0516 1.88487 7.93998C1.47146 7.6294 1.23432 7.15542 1.23432 6.63947C1.23432 5.74328 1.9634 5.01419 2.85959 5.01419C3.75578 5.01419 4.48486 5.74328 4.48486 6.63947C4.48486 7.15549 4.2478 7.62948 3.83438 7.93998C3.70806 8.03483 3.62495 8.17638 3.60367 8.333C3.58239 8.48961 3.62472 8.64815 3.72121 8.7733L7.15607 13.2299C7.26799 13.3751 7.44086 13.4601 7.62415 13.4601H7.87038C8.05765 13.4601 8.23385 13.3713 8.34533 13.2209L11.6452 8.76421C11.8386 8.50321 11.7849 8.13501 11.5252 7.93998C11.1118 7.62948 10.8747 7.15542 10.8747 6.63947C10.8747 5.74328 11.6038 5.01419 12.5 5.01419C13.3962 5.01419 14.1252 5.74328 14.1252 6.63947C14.1252 7.15549 13.8882 7.62948 13.4748 7.93998C13.347 8.0358 13.2637 8.17919 13.2435 8.3375C13.2231 8.49582 13.2677 8.65561 13.3671 8.78047L16.9133 13.2372C17.0255 13.3781 17.1957 13.4603 17.3758 13.4603C17.3773 13.4603 17.3788 13.4603 17.3804 13.4603C17.562 13.4588 17.7328 13.374 17.8437 13.2301L21.2785 8.77345C21.3751 8.6483 21.4173 8.48969 21.3961 8.33315C21.3748 8.17653 21.2918 8.03498 21.1654 7.94013C20.752 7.62955 20.5148 7.15556 20.5148 6.63961C20.5148 5.74342 21.2439 5.01434 22.1401 5.01434C23.0363 5.01434 23.7654 5.74342 23.7654 6.63961C23.7654 7.15564 23.5282 7.62963 23.1148 7.94013C22.9661 8.05175 22.8788 8.22676 22.8788 8.41264V14.6777C22.3201 14.9788 21.9356 15.7003 21.9356 16.5634C21.9356 17.4267 22.3201 18.148 22.8788 18.4492V19.9861L2.12091 19.986Z" fill="white"/>
</svg>
