<svg width="25" height="25" viewBox="0 0 25 25" fill="none" xmlns="http://www.w3.org/2000/svg">
<path d="M12.4997 2C6.71 2 2 6.7103 2 12.5C2 18.2896 6.71 23 12.4997 23C18.2896 23 23 18.2896 23 12.5C23 6.7103 18.2896 2 12.4997 2ZM12.4997 21.9756C7.27526 21.9756 3.02443 17.7249 3.02443 12.5C3.02443 7.27526 7.27526 3.02443 12.4997 3.02443C17.7249 3.02443 21.9756 7.27526 21.9756 12.5C21.9756 17.7249 17.7249 21.9756 12.4997 21.9756ZM15.5205 18.2236V19.6136C15.5205 19.6721 15.4729 19.7192 15.4154 19.7192H10.3123C10.2542 19.7192 10.2073 19.6719 10.2073 19.6136V18.2236C10.2073 18.1655 10.2545 18.1185 10.3123 18.1185H11.7825V10.7093H10.2972C10.2391 10.7093 10.1928 10.6623 10.1928 10.6046V9.18289C10.1928 9.1245 10.2394 9.078 10.2972 9.078H13.7793C13.8373 9.078 13.8843 9.12475 13.8843 9.18289V18.1185H15.4154C15.4729 18.1185 15.5205 18.1655 15.5205 18.2236ZM10.8827 6.48207C10.8827 5.59794 11.599 4.88142 12.4834 4.88142C13.3671 4.88142 14.0839 5.59798 14.0839 6.48207C14.0839 7.36615 13.3671 8.08272 12.4834 8.08272C11.5988 8.08272 10.8827 7.36619 10.8827 6.48207Z" fill="white"/>
</svg>
