<svg width="512" height="512" viewBox="0 0 512 512" fill="none" xmlns="http://www.w3.org/2000/svg">
<g clip-path="url(#clip0_336_2)">
<path d="M391.489 92.9009C381.94 86.0247 368.681 88.1763 361.827 97.7032C354.94 107.219 357.097 120.511 366.624 127.371C442.112 181.815 466.556 281.847 424.75 365.21C402.114 410.338 363.263 443.965 315.363 459.846C267.473 475.767 216.229 472.046 171.112 449.427C126.007 426.785 92.3852 387.94 76.4757 340.062C60.5828 292.139 64.2926 240.928 86.9342 195.806C114.428 140.962 167.108 102.761 227.858 93.6107C228.268 93.5664 228.617 93.4111 229.028 93.3168L229.898 135.301C230.015 139.953 232.904 144.09 237.224 145.776C241.56 147.467 246.495 146.386 249.701 143.025L310.167 79.9249C314.57 75.3333 314.403 68.0468 309.823 63.6604L246.723 3.19973C243.362 -0.0276535 238.41 -0.89827 234.151 0.987141C232.76 1.58604 231.512 2.47883 230.48 3.54908C228.418 5.70621 227.236 8.64524 227.27 11.7506L228.107 51.7435C225.972 51.3942 223.782 51.2611 221.519 51.5938C147.112 62.8009 82.5977 109.598 48.921 176.757C-8.31237 290.858 37.9856 430.229 152.075 487.44C185.286 504.104 220.626 512 255.473 512C340.35 512 422.194 465.203 462.769 384.302C513.985 282.169 484.018 159.606 391.489 92.9009Z" fill="white"/>
</g>
<defs>
<clipPath id="clip0_336_2">
<rect width="512" height="512" fill="white"/>
</clipPath>
</defs>
</svg>
