<svg width="512" height="512" viewBox="0 0 512 512" fill="none" xmlns="http://www.w3.org/2000/svg">
<g clip-path="url(#clip0_422_2)">
<path d="M256 416C88.508 416 5.468 269.984 2.016 263.772C-0.672 258.936 -0.672 253.06 2.016 248.224C5.468 242.016 88.508 96 256 96C423.492 96 506.532 242.016 509.984 248.228C512.672 253.064 512.672 258.94 509.984 263.776C506.532 269.984 423.492 416 256 416ZM34.828 255.976C53.86 284.82 128.584 384 256 384C383.82 384 458.212 284.9 477.172 256.024C458.14 227.18 383.416 128 256 128C128.18 128 53.788 227.1 34.828 255.976ZM256 352C203.064 352 160 308.936 160 256C160 203.064 203.064 160 256 160C308.936 160 352 203.064 352 256C352 308.936 308.936 352 256 352ZM256 192C220.712 192 192 220.712 192 256C192 291.288 220.712 320 256 320C291.288 320 320 291.288 320 256C320 220.712 291.288 192 256 192Z" fill="white"/>
</g>
<defs>
<clipPath id="clip0_422_2">
<rect width="512" height="512" fill="white"/>
</clipPath>
</defs>
</svg>
