<svg width="16" height="16" viewBox="0 0 16 16" fill="none" xmlns="http://www.w3.org/2000/svg">
<path d="M12.6864 5.64844H12.2305V4.23047C12.2305 1.89778 10.3327 0 8 0C5.66731 0 3.76953 1.89778 3.76953 4.23047V5.64844H3.31363C2.52469 5.64844 1.88281 6.29031 1.88281 7.07928V14.5692C1.88281 15.3581 2.52469 16 3.31363 16H12.6864C13.4753 16 14.1172 15.3581 14.1172 14.5692V7.07928C14.1172 6.29031 13.4753 5.64844 12.6864 5.64844V5.64844ZM4.70703 4.23047C4.70703 2.41472 6.18425 0.9375 8 0.9375C9.81575 0.9375 11.293 2.41472 11.293 4.23047V5.64844H10.3555V4.01044C10.3555 2.83294 9.39753 1.875 8.22003 1.875H7.77997C6.60247 1.875 5.64453 2.83294 5.64453 4.01044V5.64844H4.70703V4.23047ZM6.58203 5.64844V4.01044C6.58203 3.34991 7.11941 2.8125 7.77997 2.8125H8.22003C8.88059 2.8125 9.41797 3.34991 9.41797 4.01044V5.64844H6.58203ZM13.1797 14.5692C13.1797 14.8412 12.9584 15.0625 12.6864 15.0625H3.31363C3.04163 15.0625 2.82031 14.8412 2.82031 14.5692V7.07928C2.82031 6.80725 3.04163 6.58594 3.31363 6.58594H12.6864C12.9584 6.58594 13.1797 6.80725 13.1797 7.07928V14.5692Z" fill="white"/>
<path d="M8 8.55396C7.22244 8.55396 6.58984 9.18655 6.58984 9.96411C6.58984 10.5774 6.98347 11.1002 7.53125 11.2939V12.7883C7.53125 13.0472 7.74112 13.2571 8 13.2571C8.25888 13.2571 8.46875 13.0472 8.46875 12.7883V11.2939C9.01653 11.1002 9.41016 10.5774 9.41016 9.96411C9.41016 9.18655 8.77756 8.55396 8 8.55396ZM8 10.4368C7.73937 10.4368 7.52734 10.2247 7.52734 9.96411C7.52734 9.70349 7.73937 9.49146 8 9.49146C8.26063 9.49146 8.47266 9.70349 8.47266 9.96411C8.47266 10.2247 8.26063 10.4368 8 10.4368Z" fill="white"/>
</svg>
